<?xml version="1.0" encoding="utf-8"?>

<!DOCTYPE svg PUBLIC "-//W3C//DTD SVG 1.1//EN" "http://www.w3.org/Graphics/SVG/1.1/DTD/svg11.dtd">
<!-- Uploaded to: SVG Repo, www.svgrepo.com, Generator: SVG Repo Mixer Tools -->
<svg version="1.1" id="_x32_" xmlns="http://www.w3.org/2000/svg" xmlns:xlink="http://www.w3.org/1999/xlink" 
	 viewBox="0 0 512 512"  xml:space="preserve">
<style type="text/css">
	.st0{fill:#000000;}
</style>
<g>
	<rect x="124.84" class="st0" width="262.32" height="25.282"/>
	<path class="st0" d="M313.805,420.226h-6.056c-0.256,0-0.388,0.132-0.388,0.388v8.51c0,0.255,0.132,0.387,0.388,0.387h6.056
		c3.225,0,5.158-1.806,5.158-4.642C318.963,422.031,317.03,420.226,313.805,420.226z"/>
	<path class="st0" d="M197.083,428.216c3.418,0,5.224-1.48,5.224-4.51c0-3.093-1.744-4.511-5.224-4.511h-4.577
		c-0.256,0-0.384,0.132-0.384,0.388v8.246c0,0.264,0.128,0.388,0.384,0.388H197.083z"/>
	<path class="st0" d="M197.665,436.021h-5.159c-0.256,0-0.384,0.124-0.384,0.388v9.083c0,0.256,0.128,0.388,0.384,0.388h5.159
		c3.545,0,5.348-1.744,5.348-4.96C203.012,437.889,201.21,436.021,197.665,436.021z"/>
	<path class="st0" d="M412.385,80.063c-4.212-7.372-31.602-43.194-31.602-43.194H131.219c0,0-27.395,35.822-31.606,43.194
		c-4.213,7.378-3.159,10.532-3.159,21.073c0,10.534,0,336.064,0,349.759c0,13.696,3.902,31.157,13.695,35.822
		C130.044,496.197,122.674,512,143.86,512h224.276c21.191,0,13.816-15.803,33.711-25.283c9.793-4.666,13.7-22.127,13.7-35.822
		c0-13.695,0-339.225,0-349.759C415.547,90.596,416.597,87.441,412.385,80.063z M348.521,165.776
		c0.791-1.899,1.852-3.589,3.193-4.922c0.848-0.829,1.805-1.526,2.871-2.015l0.957-0.433l0.953,0.604
		c0.826,0.527,1.586,1.17,2.264,1.907c1.48,1.604,2.589,3.635,3.24,5.858c0.655,2.233,0.852,4.666,0.515,7.131
		c-0.26,1.891-0.787,3.875-1.522,5.735c-0.752,1.876-1.706,3.628-2.86,5.1c-0.771,0.984-1.628,1.844-2.6,2.527
		c-0.64,0.449-1.337,0.814-2.093,1.054l-0.984,0.325l-0.756-0.605c-0.516-0.41-0.95-0.891-1.349-1.418
		c-0.647-0.891-1.178-1.914-1.627-3.038c-0.446-1.132-0.81-2.356-1.097-3.635c-0.562-2.558-0.837-5.324-0.609-7.936
		C347.222,169.798,347.73,167.682,348.521,165.776z M327.935,148.453c0.391-2.015,1.097-3.891,2.147-5.456
		c0.663-0.992,1.461-1.86,2.406-2.549l0.853-0.621l1.054,0.395c0.914,0.357,1.794,0.837,2.604,1.426
		c1.774,1.279,3.266,3.038,4.352,5.1c1.09,2.054,1.771,4.402,1.93,6.882c0.128,1.906,0.012,3.952-0.344,5.93
		c-0.357,1.984-0.946,3.89-1.783,5.572c-0.558,1.109-1.228,2.124-2.042,2.984c-0.539,0.573-1.151,1.069-1.84,1.457l-0.903,0.511
		l-0.856-0.441c-0.589-0.294-1.112-0.682-1.604-1.124c-0.818-0.737-1.539-1.636-2.205-2.651c-0.663-1.015-1.264-2.14-1.798-3.341
		c-1.066-2.395-1.891-5.053-2.19-7.65C327.47,152.654,327.544,150.476,327.935,148.453z M307.861,127.155l0.71-0.767l1.116,0.186
		c0.965,0.163,1.922,0.465,2.836,0.883c1.992,0.907,3.806,2.348,5.278,4.155c1.468,1.798,2.596,3.968,3.24,6.356l-0.121-0.458
		l0.125,0.465l0.003,0.008v0.008c0.5,1.844,0.784,3.875,0.822,5.882c0.034,2.015-0.167,4.007-0.66,5.813
		c-0.332,1.202-0.786,2.333-1.422,3.332c-0.418,0.659-0.922,1.272-1.522,1.783l-0.783,0.674l-0.93-0.263
		c-0.632-0.179-1.224-0.449-1.79-0.791c-0.949-0.566-1.832-1.302-2.681-2.17c-0.853-0.86-1.663-1.86-2.422-2.922
		c-1.515-2.147-2.844-4.588-3.647-7.084c-0.678-2.131-1.035-4.278-1.046-6.332c-0.012-2.062,0.314-4.03,1.031-5.782
		C306.455,129.031,307.067,128.023,307.861,127.155z M322.797,184.842c-0.38,0.682-0.864,1.302-1.407,1.868
		c-0.818,0.852-1.767,1.604-2.783,2.286c-1.019,0.69-2.1,1.302-3.216,1.876c-2.216,1.131-4.526,2.077-6.552,2.728
		c-1.973,0.636-3.76,0.938-5.298,0.915c-1.543-0.024-2.836-0.364-3.824-1.078c-0.454-0.326-0.845-0.729-1.152-1.225l-0.36-0.566
		l0.384-0.937c0.43-1.039,0.984-2.07,1.647-3.062c1.05-1.565,2.363-3.038,3.886-4.278c1.527-1.248,3.267-2.28,5.154-2.961
		c1.655-0.589,3.434-0.868,5.166-0.852c1.736,0.008,3.426,0.31,4.879,0.868c0.968,0.371,1.832,0.867,2.53,1.488
		c0.422,0.379,0.776,0.814,1.046,1.302l0.392,0.736L322.797,184.842z M323.839,193.352c1.748-0.256,3.538-0.163,5.236,0.194
		c1.701,0.356,3.298,0.992,4.611,1.83c0.872,0.558,1.624,1.209,2.178,1.968c0.342,0.449,0.601,0.946,0.768,1.48l0.24,0.798
		l-0.663,0.775c-0.508,0.589-1.104,1.1-1.752,1.55c-0.973,0.674-2.05,1.217-3.182,1.69c-1.136,0.465-2.322,0.852-3.522,1.194
		c-2.403,0.659-4.852,1.124-6.972,1.364c-2.057,0.232-3.868,0.162-5.379-0.17c-1.503-0.326-2.709-0.93-3.538-1.822
		c-0.376-0.419-0.678-0.891-0.883-1.434l-0.24-0.636l0.566-0.838c0.624-0.929,1.376-1.828,2.225-2.666
		c1.34-1.326,2.925-2.503,4.666-3.418C319.945,194.298,321.855,193.639,323.839,193.352z M307.047,172.596
		c-0.24,0.744-0.593,1.442-1.016,2.101c-0.635,1.007-1.422,1.922-2.286,2.79c-0.86,0.868-1.806,1.698-2.782,2.465
		c-1.957,1.55-4.034,2.93-5.89,3.968c-1.81,1.007-3.499,1.651-5.011,1.93c-1.511,0.279-2.844,0.209-3.948-0.302
		c-0.508-0.232-0.969-0.551-1.368-0.969l-0.461-0.488l0.194-0.992c0.218-1.101,0.558-2.224,1.016-3.325
		c0.717-1.744,1.721-3.442,2.968-4.96c1.252-1.519,2.755-2.876,4.468-3.914c1.507-0.907,3.197-1.527,4.898-1.852
		c1.701-0.325,3.417-0.364,4.952-0.101c1.019,0.178,1.964,0.488,2.77,0.968c0.484,0.287,0.918,0.636,1.279,1.07l0.527,0.644
		L307.047,172.596z M294.34,122.016c3.38,1.023,6.724,2.17,10.022,3.449c0.81,0.31,1.217,1.17,0.922,1.906
		c-0.298,0.744-1.174,1.085-1.964,0.782c-3.229-1.248-6.503-2.371-9.817-3.371c-0.81-0.248-1.286-1.062-1.062-1.829
		C292.663,122.187,293.511,121.768,294.34,122.016z M275.608,147.648c1.398-1.891,3.414-3.194,5.739-3.844
		c2.318-0.643,4.956-0.62,7.549,0.202c1.941,0.605,3.755,1.62,5.27,2.891c1.519,1.278,2.74,2.798,3.511,4.471
		c0.508,1.124,0.825,2.318,0.848,3.566l0.016,1.007l-0.752,0.667c-0.93,0.829-1.984,1.434-3.081,1.875
		c-1.101,0.45-2.256,0.736-3.429,0.899c-2.352,0.326-4.783,0.155-7.034-0.535c-2.252-0.713-4.189-1.93-5.743-3.526
		c-1.546-1.597-2.725-3.589-3.259-5.875l-0.232-0.976L275.608,147.648z M283.683,181.518c-0.298,0.744-0.906,1.194-1.363,1.023
		c-1.876-0.728-3.779-1.38-5.705-1.969c-0.473-0.14-0.671-0.876-0.453-1.643c0.224-0.76,0.798-1.264,1.29-1.116
		c1.992,0.604,3.964,1.278,5.91,2.03C283.839,180.03,283.977,180.781,283.683,181.518z M264.83,145.532
		c2.772,0.294,5.534,0.69,8.278,1.186c0.678,0.116,1.105,0.86,0.953,1.643c-0.151,0.79-0.806,1.31-1.464,1.202
		c-2.675-0.488-5.368-0.868-8.068-1.155c-0.666-0.07-1.148-0.768-1.07-1.558C263.532,146.051,264.144,145.462,264.83,145.532z
		 M232.255,211.822c0-0.774,0.511-1.286,1.283-1.286h35.478c19.469,0,28.436,9.355,28.436,23.19c0,8.96-4.1,15.238-10.63,18.695
		v0.255c6.402,2.434,12.168,9.734,12.168,19.857c0,17.036-12.04,25.104-30.359,25.104h-35.094c-0.772,0-1.283-0.511-1.283-1.279
		V211.822z M218.645,162.939c3.472-1.651,7.049-3.084,10.688-4.324c0.903-0.302,1.817,0.031,2.046,0.744
		c0.228,0.712-0.298,1.527-1.171,1.821c-3.542,1.209-7.025,2.612-10.409,4.216c-0.837,0.387-1.774,0.178-2.104-0.496
		C217.362,164.233,217.777,163.342,218.645,162.939z M199.869,211.434h-0.02h-0.007h-0.004c-1.706,0.178-3.577,0.256-5.46,0.21
		c-1.872-0.047-3.77-0.226-5.487-0.628c-1.147-0.279-2.232-0.66-3.186-1.232c-0.628-0.38-1.202-0.852-1.666-1.449l-0.609-0.784
		l0.36-1.054c0.256-0.704,0.601-1.387,1.039-2.03c0.713-1.078,1.639-2.062,2.693-2.969c1.054-0.898,2.256-1.705,3.511-2.386
		c2.531-1.364,5.329-2.21,7.902-2.294c2.202-0.078,4.244,0.318,6.03,1.039c1.798,0.736,3.332,1.79,4.565,3.069
		c0.77,0.806,1.422,1.705,1.918,2.666l0.449,0.852l-0.422,0.775c-0.368,0.667-0.814,1.278-1.342,1.836
		c-1.139,1.21-2.612,2.171-4.348,2.906C204.058,210.69,202.059,211.202,199.869,211.434z M173.331,276.802
		c0.512-2.82,1.585-5.533,3.12-7.603c1.31-1.767,2.883-3.123,4.569-4.069c1.682-0.953,3.476-1.503,5.236-1.666
		c1.112-0.101,2.22-0.055,3.282,0.155l0.95,0.186l0.34,0.806c0.298,0.706,0.492,1.434,0.605,2.186
		c0.237,1.643,0.074,3.387-0.434,5.201c-0.5,1.814-1.352,3.689-2.542,5.564c-0.922,1.442-2.027,2.953-3.228,4.394
		c-1.213,1.442-2.511,2.814-3.902,3.914c-0.93,0.728-1.899,1.34-2.941,1.736c-0.69,0.256-1.415,0.411-2.174,0.403l-0.992-0.007
		l-0.601-0.938c-0.398-0.636-0.708-1.333-0.949-2.077c-0.395-1.225-0.597-2.566-0.647-3.946
		C172.975,279.654,173.083,278.22,173.331,276.802z M172.936,261.898c-0.732,0.046-1.472-0.016-2.197-0.24l-0.946-0.302
		l-0.302-1.062c-0.198-0.736-0.29-1.495-0.306-2.27c-0.027-1.287,0.174-2.627,0.523-3.976c0.356-1.34,0.868-2.682,1.519-3.968
		c1.298-2.557,3.112-4.852,5.17-6.394c1.763-1.317,3.666-2.163,5.545-2.581c1.891-0.426,3.759-0.434,5.495-0.093
		c1.093,0.224,2.139,0.589,3.096,1.092l0.86,0.45l0.093,0.868c0.082,0.752,0.062,1.511-0.05,2.271
		c-0.24,1.636-0.899,3.263-1.907,4.868c-1.011,1.589-2.352,3.162-4.037,4.619c-1.302,1.116-2.794,2.256-4.372,3.294
		c-1.57,1.031-3.216,1.969-4.863,2.62C175.157,261.518,174.049,261.828,172.936,261.898z M189.41,231.872
		c-1.573,0.674-3.341,1.294-5.15,1.806c-1.81,0.512-3.662,0.899-5.43,1.023c-1.178,0.078-2.325,0.031-3.41-0.233
		c-0.712-0.178-1.399-0.457-2.019-0.891l-0.814-0.573l0.031-1.109c0.043-0.752,0.171-1.503,0.395-2.248
		c0.368-1.233,0.953-2.457,1.698-3.627c0.744-1.17,1.639-2.294,2.65-3.317c2.016-2.046,4.441-3.674,6.871-4.51
		c2.073-0.722,4.146-0.938,6.068-0.768c1.922,0.163,3.713,0.728,5.263,1.589c0.973,0.542,1.856,1.209,2.612,1.976l0.682,0.69
		l-0.174,0.86c-0.152,0.744-0.407,1.457-0.736,2.147c-0.728,1.48-1.86,2.829-3.294,4.038
		C193.211,229.934,191.456,231.004,189.41,231.872z M212.034,199.684c2.128-1.906,4.363-3.689,6.693-5.34
		c0.573-0.411,1.379-0.232,1.806,0.395c0.418,0.62,0.31,1.426-0.233,1.814c-2.248,1.597-4.406,3.318-6.456,5.154
		c-0.507,0.442-1.317,0.372-1.825-0.178C211.507,200.979,211.507,200.149,212.034,199.684z M198.257,168.264
		c3.018-2.224,6.32-3.604,9.374-4.138c3.054-0.528,5.874-0.232,8.01,0.93l0.91,0.496l-0.12,1.039
		c-0.287,2.387-1.434,4.821-3.089,7.099c-1.662,2.287-3.848,4.434-6.46,6.356c-1.961,1.434-4.077,2.674-6.212,3.666
		c-2.136,0.992-4.287,1.76-6.352,2.132c-1.38,0.241-2.721,0.318-3.988,0.077l-1.015-0.178l-0.217-1.023
		c-0.248-1.256-0.171-2.651,0.182-4.069c0.348-1.434,0.957-2.914,1.783-4.371C192.707,173.34,195.234,170.473,198.257,168.264z
		 M175.544,158.878c3.651-3.27,7.491-6.332,11.494-9.169c0.98-0.697,2.128-0.752,2.546-0.124c0.422,0.613-0.02,1.651-0.973,2.333
		c-3.922,2.783-7.68,5.782-11.257,8.983c-0.88,0.782-1.988,0.984-2.496,0.434C174.347,160.792,174.641,159.684,175.544,158.878z
		 M161.473,173.782c1.19-2.852,2.891-5.526,4.968-7.736c0.961-1.023,1.991-1.945,3.084-2.728l1.256-0.892l1.008,0.318
		c1.116,0.356,2.058,0.977,2.828,1.782c1.229,1.28,2.039,3.038,2.477,5.085c0.445,2.061,0.515,4.433,0.228,7.014
		c-0.248,2.263-0.841,4.72-1.593,7.17c-0.748,2.449-1.663,4.883-2.694,7.115c-0.69,1.488-1.441,2.882-2.282,4.162
		c-0.515,0.752-1.05,1.48-1.666,2.123l-0.891,0.961l-1.012-0.132c-0.775-0.093-1.472-0.356-2.104-0.736
		c-0.949-0.582-1.756-1.418-2.449-2.434c-0.694-1.015-1.276-2.217-1.736-3.526c-0.938-2.628-1.398-5.712-1.344-8.735
		C159.602,179.657,160.283,176.634,161.473,173.782z M141.643,207.218c0.295-3.084,1.147-6.153,2.488-8.89
		c0.613-1.256,1.337-2.441,2.147-3.511l0.942-1.232l1.05,0.007c1.178,0.016,2.26,0.334,3.236,0.876
		c1.55,0.868,2.83,2.294,3.86,4.139c1.027,1.836,1.786,4.084,2.275,6.634c0.414,2.248,0.581,4.774,0.585,7.332
		c-0.008,2.566-0.159,5.17-0.48,7.611c-0.226,1.628-0.52,3.186-0.957,4.651c-0.264,0.875-0.562,1.728-0.965,2.526l-0.566,1.186
		l-1.004,0.178c-0.77,0.14-1.515,0.093-2.228-0.085c-1.082-0.28-2.097-0.837-3.058-1.605c-0.957-0.76-1.879-1.736-2.705-2.844
		c-1.663-2.24-3.027-5.061-3.864-7.968C141.593,213.402,141.345,210.302,141.643,207.218z M132.149,236.988
		c0.205-1.387,0.527-2.736,0.976-4.007l0.523-1.457l1.008-0.31c1.12-0.349,2.248-0.38,3.34-0.155
		c1.736,0.357,3.406,1.325,4.938,2.767c1.542,1.441,2.952,3.348,4.189,5.627c1.097,2.015,1.996,4.364,2.794,6.797
		c0.783,2.441,1.418,4.96,1.848,7.378c0.291,1.62,0.465,3.193,0.5,4.712c0.016,0.915-0.023,1.806-0.155,2.682l-0.186,1.302
		l-0.903,0.473c-0.694,0.364-1.418,0.542-2.151,0.589c-1.112,0.062-2.252-0.162-3.398-0.605c-1.155-0.434-2.302-1.085-3.441-1.898
		c-2.256-1.62-4.414-3.883-6.084-6.386c-1.624-2.426-2.813-5.294-3.457-8.309C131.839,243.172,131.711,239.995,132.149,236.988z
		 M157.671,294.83c-0.554,0.55-1.194,0.93-1.883,1.194c-1.047,0.379-2.205,0.496-3.43,0.403c-1.224-0.086-2.527-0.372-3.84-0.822
		c-2.64-0.899-5.356-2.465-7.689-4.387c-2.271-1.868-4.216-4.294-5.716-7.006c-1.492-2.705-2.53-5.72-2.972-8.727
		c-0.205-1.388-0.275-2.767-0.217-4.108l0.086-1.55l0.876-0.581c0.973-0.659,2.043-1.008,3.154-1.109
		c1.771-0.162,3.639,0.295,5.526,1.225c1.883,0.938,3.786,2.364,5.627,4.186c1.62,1.62,3.174,3.611,4.627,5.72
		c1.453,2.116,2.79,4.348,3.902,6.549c0.74,1.464,1.372,2.922,1.844,4.371c0.284,0.876,0.504,1.744,0.636,2.628l0.198,1.302
		L157.671,294.83z M199.083,454.452h-17.66c-0.388,0-0.648-0.256-0.648-0.643v-42.543c0-0.387,0.26-0.644,0.648-0.644h17.853
		c9.797,0,14.308,4.705,14.308,11.665c0,4.518-2.062,7.673-5.348,9.417v0.124c3.22,1.225,6.123,4.899,6.123,9.991
		C214.359,450.391,208.298,454.452,199.083,454.452z M251.611,419.583c0,0.388-0.259,0.643-0.643,0.643h-17.598
		c-0.256,0-0.388,0.132-0.388,0.388v6.643c0,0.256,0.132,0.387,0.388,0.387h14.439c0.388,0,0.644,0.256,0.644,0.643v8.123
		c0,0.379-0.256,0.643-0.644,0.643h-14.439c-0.256,0-0.388,0.125-0.388,0.388v7.022c0,0.256,0.132,0.387,0.388,0.387h17.598
		c0.384,0,0.643,0.256,0.643,0.644v8.317c0,0.387-0.259,0.643-0.643,0.643h-28.681c-0.388,0-0.648-0.256-0.648-0.643v-42.543
		c0-0.387,0.26-0.644,0.648-0.644h28.681c0.384,0,0.643,0.256,0.643,0.644V419.583z M288.799,419.583
		c0,0.388-0.256,0.643-0.644,0.643h-17.594c-0.26,0-0.388,0.132-0.388,0.388v6.643c0,0.256,0.128,0.387,0.388,0.387h14.436
		c0.387,0,0.643,0.256,0.643,0.643v8.123c0,0.379-0.256,0.643-0.643,0.643h-14.436c-0.26,0-0.388,0.125-0.388,0.388v7.022
		c0,0.256,0.128,0.387,0.388,0.387h17.594c0.387,0,0.644,0.256,0.644,0.644v8.317c0,0.387-0.256,0.643-0.644,0.643h-28.681
		c-0.387,0-0.647-0.256-0.647-0.643v-42.543c0-0.387,0.26-0.644,0.647-0.644h28.681c0.387,0,0.644,0.256,0.644,0.644V419.583z
		 M330.695,454.452h-11.149c-0.582,0-0.776-0.194-0.969-0.643l-6.638-14.959h-4.189c-0.256,0-0.388,0.132-0.388,0.387v14.572
		c0,0.387-0.256,0.643-0.643,0.643h-10.056c-0.387,0-0.644-0.256-0.644-0.643v-42.543c0-0.387,0.256-0.644,0.644-0.644h17.853
		c10.056,0,15.791,5.868,15.791,14.114c0,5.48-2.577,9.928-7.219,12.245l8.06,16.696
		C331.337,454.065,331.148,454.452,330.695,454.452z M340.545,326.01c-8.805,9.836-19.485,18.005-31.312,23.902
		c-11.82,5.906-24.791,9.525-37.955,10.595c-13.148,1.085-26.518-0.294-39.171-4.154c-12.652-3.836-24.542-10.122-34.846-18.384
		c-10.316-8.247-19.055-18.454-25.596-29.941c-6.561-11.463-10.898-24.213-12.703-37.303c-1.802-13.083-1.155-26.484,1.984-39.334
		c3.127-12.842,8.742-25.072,16.415-35.83c1.162-1.62,3.154-2.132,4.375-1.186c1.225,0.953,1.286,2.929,0.198,4.448
		c-7.262,10.177-12.572,21.748-15.532,33.893c-2.968,12.153-3.581,24.857-1.876,37.234c1.709,12.386,5.805,24.446,12.013,35.296
		c6.197,10.866,14.467,20.531,24.229,28.336c9.452,7.58,20.314,13.378,31.862,17.036c-1.163-0.69-2.318-1.41-3.441-2.201
		c-6.208-4.31-11.606-10.122-15.203-16.23c-3.639-6.107-5.507-12.408-5.859-17.64c-0.372-5.255,0.686-9.41,2.406-11.952
		c5.464,6.952,10.084,13.006,14.7,19.043c4.584,5.991,9.238,11.82,13.932,16.966c4.669,5.139,9.308,9.556,13.18,12.602
		c2.398,1.891,4.483,3.256,6.131,3.929c4.115,0.171,8.238,0.117,12.342-0.224c12.459-1.023,24.724-4.433,35.909-10.03
		c11.191-5.58,21.298-13.299,29.633-22.623c1.248-1.388,3.19-1.76,4.388-0.776C341.941,322.468,341.875,324.522,340.545,326.01z
		 M367.885,267.068c-0.105,1.441-1.558,2.48-3.193,2.316c-1.648-0.162-2.868-1.394-2.774-2.751
		c1.542-20.516-2.896-41.419-12.661-59.524c-9.703-18.136-24.623-33.436-42.523-43.558c-1.182-0.675-1.527-2.372-0.752-3.829
		c0.775-1.457,2.441-2.093,3.701-1.372c18.888,10.672,34.614,26.809,44.844,45.938C364.828,223.37,369.513,245.443,367.885,267.068z
		"/>
	<path class="st0" d="M265.815,280.6c7.045,0,10.629-3.456,10.629-9.859c0-6.021-3.584-9.734-10.629-9.734h-10.246
		c-0.512,0-0.771,0.256-0.771,0.768v18.059c0,0.511,0.26,0.766,0.771,0.766H265.815z"/>
	<path class="st0" d="M264.663,245.506c6.786,0,10.374-2.945,10.374-8.968c0-6.146-3.461-8.968-10.374-8.968h-9.095
		c-0.512,0-0.771,0.256-0.771,0.776v16.392c0,0.511,0.26,0.768,0.771,0.768H264.663z"/>
</g>
</svg>