<?xml version="1.0" encoding="utf-8"?>

<!DOCTYPE svg PUBLIC "-//W3C//DTD SVG 1.1//EN" "http://www.w3.org/Graphics/SVG/1.1/DTD/svg11.dtd">
<!-- Uploaded to: SVG Repo, www.svgrepo.com, Generator: SVG Repo Mixer Tools -->
<svg version="1.1" id="_x32_" xmlns="http://www.w3.org/2000/svg" xmlns:xlink="http://www.w3.org/1999/xlink" 
	 width="800px" height="800px" viewBox="0 0 512 512"  xml:space="preserve">
<style type="text/css">
<![CDATA[
	.st0{fill:#000000;}
]]>
</style>
<g>
	<path class="st0" d="M230.816,493.781C235.722,504.969,245.425,512,256.003,512c10.563,0,20.25-7.031,25.188-18.219
		c0,0,93.875-217.719,105.469-240.594c16.25-32,41.625-34.938,36.188-52c-5.219-16.375-25.844-22.031-39.875-17
		c-25.094,9-19.938,27-48.719,28.031c-29.563,1-25.094-22.031-78.25-22.031s-48.688,23.031-78.25,22.031
		c-28.781-1.031-23.625-19.031-48.719-28.031c-14.031-5.031-34.656,0.625-39.875,17c-5.469,17.063,19.938,20,36.172,52
		C136.925,276.063,230.816,493.781,230.816,493.781z"/>
	<path class="st0" d="M256.003,0C185.472,0,128.3,57.188,128.3,127.688c0,8.047,0.828,15.875,2.25,23.5
		c3.219,0.594,6.359,1.406,9.406,2.5c18.531,6.656,28.141,17.156,33.891,23.406c0.75,0.813,1.672,1.844,2.344,2.5
		c0.547,0.094,1.422,0.188,2.703,0.25c0.172,0,0.328,0,0.469,0c2.438,0,2.734-0.188,7.734-3.375
		c14.875-9.438,32.422-18.672,68.906-18.672c36.469,0,54.031,9.234,68.891,18.672c5.266,3.359,5.313,3.375,7.422,3.375
		c0.016,0,0.031,0,0.063,0c1.75-0.063,2.828-0.156,3.453-0.25c0.656-0.672,1.578-1.688,2.313-2.5
		c5.75-6.25,15.375-16.75,33.891-23.406c3.047-1.094,6.203-1.891,9.406-2.5c1.422-7.625,2.25-15.453,2.25-23.5
		C383.691,57.188,326.503,0,256.003,0z M185.988,103.703c-8.938,0-16.203-7.25-16.203-16.203c0-8.938,7.266-16.188,16.203-16.188
		c8.953,0,16.203,7.25,16.203,16.188C202.191,96.453,194.941,103.703,185.988,103.703z M262.925,59.156
		c-8.953,0-16.203-7.25-16.203-16.188s7.25-16.188,16.203-16.188c8.938,0,16.188,7.25,16.188,16.188S271.863,59.156,262.925,59.156z
		 M315.566,128c-8.953,0-16.203-7.25-16.203-16.188c0-8.953,7.25-16.203,16.203-16.203c8.938,0,16.188,7.25,16.188,16.203
		C331.753,120.75,324.503,128,315.566,128z"/>
</g>
</svg>