<?xml version="1.0" encoding="utf-8"?>

<!DOCTYPE svg PUBLIC "-//W3C//DTD SVG 1.1//EN" "http://www.w3.org/Graphics/SVG/1.1/DTD/svg11.dtd">
<!-- Uploaded to: SVG Repo, www.svgrepo.com, Generator: SVG Repo Mixer Tools -->
<svg height="800px" width="800px" version="1.1" id="_x32_" xmlns="http://www.w3.org/2000/svg" xmlns:xlink="http://www.w3.org/1999/xlink" 
	 viewBox="0 0 512 512"  xml:space="preserve">
<style type="text/css">
	.st0{fill:#000000;}
</style>
<g>
	<path class="st0" d="M502.522,335.715L381.12,290.106c12.438-43.518,1.547-92.266-32.7-126.522
		c-34.256-34.256-83.022-45.138-126.513-32.718L176.29,9.473c-1.954-5.166-6.622-8.784-12.113-9.39
		c-5.472-0.588-10.818,1.963-13.821,6.585l-29.164,45.111l-57.223-3.193c-4.143-0.226-8.186,1.33-11.126,4.269
		c-2.94,2.932-4.487,6.975-4.242,11.126l3.175,57.205L6.664,150.359c-4.623,3.003-7.165,8.35-6.576,13.831
		c0.588,5.49,4.216,10.149,9.371,12.094l106.666,40.091c6.296-15.124,15.55-29.299,27.843-41.593
		c13.198-13.198,28.548-22.876,44.921-29.136c-7.996,5.039-15.559,10.99-22.523,17.937c-50.258,50.268-50.258,131.778,0,182.036
		c33.352,33.342,80.425,44.55,123.021,33.65l46.324,123.266c1.945,5.165,6.612,8.792,12.103,9.38
		c5.473,0.588,10.828-1.954,13.804-6.585l29.199-45.102l57.196,3.185c4.152,0.226,8.196-1.33,11.136-4.261
		c2.931-2.93,4.486-6.974,4.26-11.117l-3.193-57.213l45.111-29.182c4.622-2.995,7.173-8.35,6.586-13.822
		C511.306,342.337,507.697,337.66,502.522,335.715z"/>
</g>
</svg>