<?xml version="1.0" encoding="utf-8"?><!-- Uploaded to: SVG Repo, www.svgrepo.com, Generator: SVG Repo Mixer Tools -->
<svg width="800px" height="800px" viewBox="0 0 24 24" fill="none" xmlns="http://www.w3.org/2000/svg">
<path d="M3 9L3.6 8.2C3.29698 7.97274 2.89157 7.93618 2.55279 8.10557C2.214 8.27496 2 8.62123 2 9H3ZM3 15H2C2 15.3788 2.214 15.725 2.55279 15.8944C2.89157 16.0638 3.29698 16.0273 3.6 15.8L3 15ZM21 9H22C22 8.62123 21.786 8.27496 21.4472 8.10557C21.1084 7.93618 20.703 7.97274 20.4 8.2L21 9ZM21 15L20.4 15.8C20.703 16.0273 21.1084 16.0638 21.4472 15.8944C21.786 15.725 22 15.3788 22 15H21ZM2.4 9.8L6.4 12.8L7.6 11.2L3.6 8.2L2.4 9.8ZM6.4 11.2L2.4 14.2L3.6 15.8L7.6 12.8L6.4 11.2ZM4 15V9H2V15H4ZM20.4 8.2L16.4 11.2L17.6 12.8L21.6 9.8L20.4 8.2ZM16.4 12.8L20.4 15.8L21.6 14.2L17.6 11.2L16.4 12.8ZM22 15V9H20V15H22ZM16 12C16 14.2091 14.2091 16 12 16V18C15.3137 18 18 15.3137 18 12H16ZM8 12C8 9.79086 9.79086 8 12 8V6C8.68629 6 6 8.68629 6 12H8ZM12 8C14.164 8 16 9.836 16 12H18C18 8.73143 15.2686 6 12 6V8ZM12 16C9.836 16 8 14.164 8 12H6C6 15.2686 8.73143 18 12 18V16ZM15.8505 9.23479L9.2343 15.851L10.6485 17.2652L17.2648 10.649L15.8505 9.23479ZM13.3505 6.73479L6.7343 13.351L8.14851 14.7652L14.7648 8.149L13.3505 6.73479Z" fill="#000000"/>
</svg>