<?xml version="1.0" encoding="utf-8"?><!-- Uploaded to: SVG Repo, www.svgrepo.com, Generator: SVG Repo Mixer Tools -->
<svg width="800px" height="800px" viewBox="0 0 24 24" fill="none" xmlns="http://www.w3.org/2000/svg">
<path d="M11 3V7M11 3C8.83062 3 6.93015 4.15132 5.87627 5.87627M11 3C12.9117 3 14.6145 3.89401 15.7133 5.28675M11 7C9.89543 7 9 7.89543 9 9M11 7C11.8111 7 12.5094 7.48283 12.8232 8.17675M9 9V10C9 11.1046 8.10457 12 7 12C5.89543 12 5 11.1046 5 10V9C5 7.85567 5.32035 6.78616 5.87627 5.87627M9 9L5.87627 5.87627M13 13L17 10M12.8232 8.17675C12.9368 8.42782 13 8.70653 13 9V18M12.8232 8.17675L15.7133 5.28675M15.7133 5.28675C16.5191 6.30821 17 7.59795 17 9V10M17 10V15M13 18V19C13 19.2935 13.0632 19.5722 13.1768 19.8232C13.4906 20.5172 14.1889 21 15 21C16.1046 21 17 20.1046 17 19V15M13 18L17 15" stroke="#000000" stroke-width="2" stroke-linecap="round" stroke-linejoin="round"/>
</svg>