<?xml version="1.0" encoding="iso-8859-1"?>
<!-- Uploaded to: SVG Repo, www.svgrepo.com, Generator: SVG Repo Mixer Tools -->
<svg fill="#000000" height="800px" width="800px" version="1.1" id="Layer_1" xmlns="http://www.w3.org/2000/svg" xmlns:xlink="http://www.w3.org/1999/xlink" 
	 viewBox="0 0 507.848 507.848" xml:space="preserve">
<g>
	<g>
		<path d="M401.214,259.897v0.853v2.56c0,0.853,0,2.56-0.853,3.413c-0.853,3.413-2.56,5.973-4.267,9.387
			c0,0.853-0.853,0.853-0.853,1.707c-0.853,0.853-1.707,1.707-2.56,2.56c-0.853,0.853-0.853,0.853-1.707,1.707
			c-0.853,0-0.853,0.853-1.707,1.707c-0.853,0-0.853,0.853-1.707,0.853c-3.413,1.707-6.827,2.56-10.24,3.413
			c-0.853,0-0.853,0-1.707,0h-0.853c-0.853,0-1.707,0-2.56,0c-0.853,0-0.853,0-1.707,0c-1.707,0-3.413-0.853-5.12-1.707
			l-65.707-27.307h-0.853v29.867l96.427,63.147c23.04-23.893,43.52-45.227,57.173-58.88L401.214,259.897z"/>
	</g>
</g>
<g>
	<g>
		<path d="M202.387,233.444c0,0-0.853-0.853-0.853-1.707c-0.853-1.707-1.707-4.267-2.56-6.827c0-0.853,0-0.853-0.853-1.707
			c-0.853-1.707-0.853-4.267-1.707-5.973c0-0.853,0-1.707,0-2.56c0-2.56-0.853-5.12-0.853-7.68s0-5.12,0.853-7.68
			c0-0.853,0-1.707,0-2.56c0-1.707,0.853-4.267,1.707-5.973c0-0.853,0-0.853,0.853-1.707c0.853-2.56,1.707-4.267,2.56-6.827
			c0-0.853,0.853-1.707,0.853-2.56c0.853-1.707,1.707-3.413,2.56-5.12c0-0.853,0.853-0.853,0.853-1.707l-64.853-26.453
			c-0.853,0-1.707-0.853-3.413-0.853h-0.853c-0.853,0-0.853,0-1.707,0h-0.853c-0.853,0-1.707,0.853-2.56,0.853
			s-0.853,0.853-1.707,1.707c0,0-0.853,0.853-0.853,1.707c0,0,0,0,0,0.853c-0.853,3.413-0.853,5.12-0.853,6.827v22.187v78.507
			c0,3.413,1.707,5.973,4.267,7.68s5.973,1.707,8.533,0.853l64.853-26.453c0-0.853-0.853-0.853-0.853-1.707
			C204.094,236.857,203.24,235.151,202.387,233.444z"/>
	</g>
</g>
<g>
	<g>
		<path d="M472.894,67.044c-32.427-36.693-70.827-55.467-111.787-55.467c-45.227,0-85.333,27.307-109.227,72.533
			c-23.893-45.227-64-72.533-108.373-72.533c-23.04,0-45.227,5.973-66.56,18.773l181.76,117.76
			c11.947,1.707,22.187,5.973,30.72,12.8l70.827-28.16c8.533-3.413,17.067-2.56,24.747,2.56s11.947,12.8,11.947,22.187v78.507
			l63.147,41.813C532.627,204.431,510.441,108.857,472.894,67.044z"/>
	</g>
</g>
<g>
	<g>
		<g>
			<path d="M64.147,41.444c-10.24,6.827-14.507,11.947-23.893,22.187c-8.533,9.387-16.213,21.333-23.04,35.84l98.133,61.44v-5.973
				c0-8.533,4.267-17.067,11.947-22.187c0.853-0.853,1.707-0.853,2.56-1.707c6.827-3.413,14.507-4.267,22.187-0.853l70.827,28.16
				c0,0,0.853,0,0.853-0.853c2.56-1.707,4.267-3.413,6.827-4.267c0.853,0,0.853-0.853,1.707-0.853
				c1.988-1.326,2.944-1.107,3.273-0.943L64.147,41.444z"/>
			<path d="M235.527,151.434l0.14,0.09C235.667,151.524,235.622,151.481,235.527,151.434z"/>
		</g>
	</g>
</g>
<g>
	<g>
		<path d="M280.894,259.044c-1.707,0.853-3.413,1.707-5.12,1.707h-0.853c-5.973,1.707-12.8,3.413-19.627,3.413
			s-12.8-0.853-19.627-3.413h-0.853c-1.707-0.853-3.413-1.707-5.12-1.707c0,0,0,0-0.853,0v53.76l19.627-19.627
			c3.413-1.707,5.12-2.56,7.68-2.56s4.267,0.853,5.973,2.56l19.627,19.627v-24.747v-29.013
			C281.747,259.044,281.747,259.044,280.894,259.044z"/>
	</g>
</g>
<g>
	<g>
		<path d="M298.814,310.244v29.013c0,3.413-1.707,6.827-5.12,7.68c-0.853,0.853-2.56,0.853-3.413,0.853
			c-2.56,0-4.267-0.853-5.973-2.56l-28.16-28.16l-28.16,28.16c-2.56,2.56-5.973,3.413-9.387,1.707
			c-3.413-1.707-5.12-4.267-5.12-7.68v-79.36l-65.707,26.453c-3.413,0.853-6.827,1.707-10.24,1.707
			c-5.12,0-10.24-1.707-14.507-4.267c-7.68-5.12-11.947-12.8-11.947-22.187v-74.24L6.974,122.511
			c-14.507,47.787-9.387,110.933,44.373,162.133c35.84,34.133,197.12,203.093,198.827,204.8l5.973,6.827l5.973-6.827
			c0.853-0.853,64-67.413,120.32-124.587L298.814,310.244z"/>
	</g>
</g>
<g>
	<g>
		<path d="M379.88,150.671c-2.56-1.707-5.973-1.707-8.533-0.853l-64,24.747c0,0.853,0.853,0.853,0.853,1.707
			c0.853,1.707,1.707,3.413,2.56,5.12c0.853,0.853,0.853,1.707,0.853,2.56c0.853,1.707,1.707,4.267,2.56,6.827
			c0,0.853,0,0.853,0.853,1.707c0.853,1.707,0.853,4.267,1.707,5.973c0,0.853,0,1.707,0,2.56c0,2.56,0.853,5.12,0.853,7.68
			s0,5.12-0.853,7.68c0,0.853,0,1.707,0,2.56c0,1.707-0.853,4.267-1.707,5.973c0,0.853,0,0.853-0.853,1.707
			c-0.853,2.56-1.707,4.267-2.56,6.827c0,0.853-0.853,1.707-0.853,2.56c-0.853,1.707-1.707,3.413-2.56,5.12l-0.853,0.853h0.853
			l64,25.6c0.853,0,1.707,0.853,2.56,0.853h0.853c0.853,0,0.853,0,1.707,0s1.707-0.853,2.56-0.853
			c2.56-1.707,4.267-4.267,4.267-6.827v-0.853v-0.853v-17.067v-83.627C384.147,154.937,382.44,152.377,379.88,150.671z"/>
	</g>
</g>
<g>
	<g>
		<path d="M296.254,199.311c0-0.853,0-0.853,0-1.707c-1.707-6.827-4.267-11.947-8.533-17.067c-0.853-0.853-1.707-1.707-2.56-3.413
			c-6.827-6.827-17.067-11.947-29.013-11.947c-2.56,0-5.973,0-8.533,0.853c-0.853,0-1.707,0.853-2.56,0.853
			c-1.707,0.853-4.267,0.853-5.973,1.707c-0.853,0-1.707,0.853-2.56,0.853c-1.707,0.853-3.413,1.707-5.12,2.56
			c-0.853,0.853-1.707,1.707-2.56,2.56s-2.56,1.707-3.413,3.413c-0.853,0.853-1.707,1.707-2.56,3.413
			c-4.267,5.12-6.827,11.093-8.533,17.067c0,0.853,0,0.853,0,1.707c-0.853,1.707-0.853,5.12-0.853,7.68s0,5.973,0.853,8.533
			c0,0.853,0,0.853,0,1.707c1.707,6.827,4.267,11.947,8.533,17.067c0.853,0.853,1.707,1.707,2.56,3.413
			c0.853,0.853,2.56,1.707,3.413,2.56c1.707,0.853,2.56,2.56,4.267,3.413c0,0,0.853,0,0.853,0.853c12.8,7.68,29.867,7.68,42.667,0
			c0,0,0.853,0,0.853-0.853c1.707-0.853,2.56-1.707,4.267-3.413c0.853-0.853,1.707-1.707,2.56-2.56c0.853,0,0.853-0.853,1.707-0.853
			c0.853-0.853,1.707-1.707,1.707-2.56c4.267-5.12,6.827-11.093,8.533-17.067c0-0.853,0-0.853,0-1.707
			c0.853-2.56,0.853-5.973,0.853-8.533S297.107,201.871,296.254,199.311z"/>
	</g>
</g>
</svg>